<svg xmlns="http://www.w3.org/2000/svg" xmlns:xlink="http://www.w3.org/1999/xlink" width="1262" height="568" style="border: 1px solid black; overflow: hidden;"><defs/><g id="container"><g id="container_1" transform="matrix(0.4981,0.0000,0.0000,0.4981,187.0000,86.00)"><g id="container_2"/><g id="container_3"/><g id="container_4"><g id="I11"><path d="M 424.72253976253853 135L 402.6330643337666 135M 424.72253976253853 150L 424.72253976253853 120.00000000000001" style="fill:none;stroke:#000000;stroke-linecap:round;stroke-miterlimit:10;" id="shape"/></g><g id="I12"><text id="text" transform="matrix(1.0000,0.0000,0.0000,1.0000,439.0264,126.60)" fill="#000000" style="font-size:20px;font-family:Arial;">3.4-1</text><path d="M 434.0264273231779 120.00000000000001L 424.72253976253853 120.00000000000001" style="fill:none;stroke:#000000;stroke-linecap:round;stroke-miterlimit:10;" id="shape_1"/></g><g id="I51"><text id="text_1" transform="matrix(1.0000,0.0000,0.0000,1.0000,482.8083,636.60)" fill="#000000" style="font-size:20px;font-family:Arial;">3.7-2</text><path d="M 477.8083130926988 630.0000000000002L 471.9495698163087 630.0000000000002" style="fill:none;stroke:#000000;stroke-linecap:round;stroke-miterlimit:10;" id="shape_2"/></g><g id="I22"><path d="M 509.99369261995525 989.0625000000006L 480.329512919964 989.0625000000006M 509.99369261995525 1018.1250000000006L 509.99369261995525 960.0000000000005" style="fill:none;stroke:#008000;stroke-linecap:round;stroke-miterlimit:10;" id="shape_3"/></g><g id="I73"><text id="text_2" transform="matrix(1.0000,0.0000,0.0000,1.0000,465.7336,276.60)" fill="#000000" style="font-size:20px;font-family:Arial;">2.10-14</text><path d="M 460.733634914118 270.00000000000006L 454.78251482084573 270.00000000000006" style="fill:none;stroke:#000000;stroke-linecap:round;stroke-miterlimit:10;" id="shape_4"/></g><g id="I5"><path d="M 357.78421845884304 75L 357.78194377287576 75M 357.78421845884304 90.00000000000001L 357.78421845884304 60.00000000000001" style="fill:none;stroke:#ff8000;stroke-linecap:round;stroke-miterlimit:10;" id="shape_5"/></g><g id="I47"><text id="text_3" transform="matrix(1.0000,0.0000,0.0000,1.0000,488.7421,756.60)" fill="#000000" style="font-size:20px;font-family:Arial;">3.7-15</text><path d="M 483.7421349953296 750.0000000000003L 474.87595331328276 750.0000000000003" style="fill:none;stroke:#000000;stroke-linecap:round;stroke-miterlimit:10;" id="shape_6"/></g><g id="I46"><path d="M 474.87595331328276 765.0000000000003L 474.8736786273154 765.0000000000003M 474.87595331328276 780.0000000000003L 474.87595331328276 750.0000000000003" style="fill:none;stroke:#000000;stroke-linecap:round;stroke-miterlimit:10;" id="shape_7"/></g><g id="I43"><path d="M 471.9541191882434 716.2500000000002L 471.95184450227606 716.2500000000002M 471.9541191882434 742.5000000000003L 471.9541191882434 690.0000000000002" style="fill:none;stroke:#000000;stroke-linecap:round;stroke-miterlimit:10;" id="shape_8"/></g><g id="I6"><text id="text_4" transform="matrix(1.0000,0.0000,0.0000,1.0000,382.2722,66.60)" fill="#ff8000" style="font-size:20px;font-family:Arial;">Ca. Jettenia asiatica - DQ301513.1.1538</text><path d="M 377.27223938619056 60.00000000000001L 357.78421845884304 60.00000000000001" style="fill:none;stroke:#ff8000;stroke-linecap:round;stroke-miterlimit:10;" id="shape_9"/></g><g id="I50"><text id="text_5" transform="matrix(1.0000,0.0000,0.0000,1.0000,485.7720,666.60)" fill="#000000" style="font-size:20px;font-family:Arial;">3.4-3</text><path d="M 480.7720308967204 660.0000000000002L 471.95184450227606 660.0000000000002" style="fill:none;stroke:#000000;stroke-linecap:round;stroke-miterlimit:10;" id="shape_10"/></g><g id="I20"><text id="text_6" transform="matrix(1.0000,0.0000,0.0000,1.0000,507.5230,906.60)" fill="#008000" style="font-size:20px;font-family:Arial;">Ca. Brocadia fulgida - EU478693.1.2139</text><path d="M 502.5229527571386 900.0000000000003L 488.64576481653387 900.0000000000003" style="fill:none;stroke:#008000;stroke-linecap:round;stroke-miterlimit:10;" id="shape_11"/></g><g id="I26"><path d="M 510.00279136382454 1095.0000000000005L 510.0005166778572 1095.0000000000005M 510.00279136382454 1110.0000000000005L 510.00279136382454 1080.0000000000005" style="fill:none;stroke:#008000;stroke-linecap:round;stroke-miterlimit:10;" id="shape_12"/></g><g id="I69"><path d="M 454.7870641927804 345.00000000000006L 454.78478950681307 345.00000000000006M 454.7870641927804 360.0000000000001L 454.7870641927804 330.00000000000006" style="fill:none;stroke:#000000;stroke-linecap:round;stroke-miterlimit:10;" id="shape_13"/></g><g id="I33"><path d="M 501.4147144941583 832.5000000000003L 463.6663008662652 832.5000000000003M 501.4147144941583 855.0000000000003L 501.4147144941583 810.0000000000003" style="fill:none;stroke:#008000;stroke-linecap:round;stroke-miterlimit:10;" id="shape_14"/></g><g id="I44"><path d="M 474.8736786273154 742.5000000000003L 471.9541191882434 742.5000000000003M 474.8736786273154 765.0000000000003L 474.8736786273154 720.0000000000002" style="fill:none;stroke:#000000;stroke-linecap:round;stroke-miterlimit:10;" id="shape_15"/></g><g id="I56"><text id="text_7" transform="matrix(1.0000,0.0000,0.0000,1.0000,639.2195,426.60)" fill="#ff0000" style="font-size:20px;font-family:Arial;">Ca. Scalindua wagneri - EU478692.1.2144</text><path d="M 634.219475940525 420.00000000000006L 557.3048860545168 420.00000000000006" style="fill:none;stroke:#ff0000;stroke-linecap:round;stroke-miterlimit:10;" id="shape_16"/></g><g id="I28"><text id="text_8" transform="matrix(1.0000,0.0000,0.0000,1.0000,515.0028,1116.60)" fill="#008000" style="font-size:20px;font-family:Arial;">3.7-28</text><path d="M 510.00279136382454 1110.0000000000005L 510.00279136382454 1110.0000000000005" style="fill:none;stroke:#008000;stroke-linecap:round;stroke-miterlimit:10;" id="shape_17"/></g><g id="I68"><path d="M 454.78478950681307 322.50000000000006L 454.78251482084573 322.50000000000006M 454.78478950681307 345.00000000000006L 454.78478950681307 300.00000000000006" style="fill:none;stroke:#000000;stroke-linecap:round;stroke-miterlimit:10;" id="shape_18"/></g><g id="I54"><text id="text_9" transform="matrix(1.0000,0.0000,0.0000,1.0000,468.1046,546.60)" fill="#000000" style="font-size:20px;font-family:Arial;">AJ871743</text><path d="M 463.10458832121174 540.0000000000001L 463.1021787463666 540.0000000000001" style="fill:none;stroke:#000000;stroke-linecap:round;stroke-miterlimit:10;" id="shape_19"/></g><g id="I4"><path d="M 357.78194377287576 159.95544433593753L 178.89097188643788 159.95544433593753M 357.78194377287576 244.91088867187509L 357.78194377287576 75" style="fill:none;stroke:#000000;stroke-linecap:round;stroke-miterlimit:10;" id="shape_20"/></g><g id="I72"><text id="text_10" transform="matrix(1.0000,0.0000,0.0000,1.0000,459.7872,306.60)" fill="#000000" style="font-size:20px;font-family:Arial;">2.10-2</text><path d="M 454.78719908165823 300.00000000000006L 454.78478950681307 300.00000000000006" style="fill:none;stroke:#000000;stroke-linecap:round;stroke-miterlimit:10;" id="shape_21"/></g><g id="I27"><text id="text_11" transform="matrix(1.0000,0.0000,0.0000,1.0000,515.0028,1086.60)" fill="#008000" style="font-size:20px;font-family:Arial;">3.7-6</text><path d="M 510.00279136382454 1080.0000000000005L 510.00279136382454 1080.0000000000005" style="fill:none;stroke:#008000;stroke-linecap:round;stroke-miterlimit:10;" id="shape_22"/></g><g id="I67"><path d="M 454.78251482084573 296.25000000000006L 451.8504446089533 296.25000000000006M 454.78251482084573 322.50000000000006L 454.78251482084573 270.00000000000006" style="fill:none;stroke:#000000;stroke-linecap:round;stroke-miterlimit:10;" id="shape_23"/></g><g id="I15"><path d="M 438.7516654660655 588.6621093750002L 428.2881100163332 588.6621093750002M 438.7516654660655 731.0742187500003L 438.7516654660655 446.25000000000006" style="fill:none;stroke:#000000;stroke-linecap:round;stroke-miterlimit:10;" id="shape_24"/></g><g id="I62"><text id="text_12" transform="matrix(1.0000,0.0000,0.0000,1.0000,471.3323,396.60)" fill="#0000ff" style="font-size:20px;font-family:Arial;">Ca. Kuenenia stuttgartiensis - CT573071.836029.837577</text><path d="M 466.3322842278825 390.0000000000001L 428.2881100163332 390.0000000000001" style="fill:none;stroke:#0000ff;stroke-linecap:round;stroke-miterlimit:10;" id="shape_25"/></g><g id="I61"><text id="text_13" transform="matrix(1.0000,0.0000,0.0000,1.0000,628.8364,516.60)" fill="#ff0000" style="font-size:20px;font-family:Arial;">Ca. Scalindua sp. enrichment culture clone 15L - EU142947.1.1530</text><path d="M 623.8363786356117 510.00000000000017L 600.0701195833632 510.00000000000017" style="fill:none;stroke:#ff0000;stroke-linecap:round;stroke-miterlimit:10;" id="shape_26"/></g><g id="I70"><text id="text_14" transform="matrix(1.0000,0.0000,0.0000,1.0000,459.7871,336.60)" fill="#000000" style="font-size:20px;font-family:Arial;">2.10-1</text><path d="M 454.7870641927804 330.00000000000006L 454.7870641927804 330.00000000000006" style="fill:none;stroke:#000000;stroke-linecap:round;stroke-miterlimit:10;" id="shape_27"/></g><g id="I21"><text id="text_15" transform="matrix(1.0000,0.0000,0.0000,1.0000,513.8934,936.60)" fill="#008000" style="font-size:20px;font-family:Arial;">Ca. Brocadia caroliniensis - F810110.1.1510</text><path d="M 508.8933619615375 930.0000000000005L 488.64576481653387 930.0000000000005" style="fill:none;stroke:#008000;stroke-linecap:round;stroke-miterlimit:10;" id="shape_28"/></g><g id="I25"><path d="M 510.0005166778572 1072.5000000000007L 509.9982419918899 1072.5000000000007M 510.0005166778572 1095.0000000000005L 510.0005166778572 1050.0000000000005" style="fill:none;stroke:#008000;stroke-linecap:round;stroke-miterlimit:10;" id="shape_29"/></g><g id="I23"><path d="M 509.9959673059226 1018.1250000000006L 509.99369261995525 1018.1250000000006M 509.9959673059226 1046.2500000000005L 509.9959673059226 990.0000000000005" style="fill:none;stroke:#008000;stroke-linecap:round;stroke-miterlimit:10;" id="shape_30"/></g><g id="I71"><text id="text_16" transform="matrix(1.0000,0.0000,0.0000,1.0000,459.7871,366.60)" fill="#000000" style="font-size:20px;font-family:Arial;">2.10-7</text><path d="M 454.7870641927804 360.0000000000001L 454.7870641927804 360.0000000000001" style="fill:none;stroke:#000000;stroke-linecap:round;stroke-miterlimit:10;" id="shape_31"/></g><g id="I1"><text id="text_17" transform="matrix(1.0000,0.0000,0.0000,1.0000,530.7001,186.60)" fill="#9400d3" style="font-size:20px;font-family:Arial;">Ca. Anammoxoglobus propionicus - EU478694.1.2286</text><path d="M 525.700147871591 180L 441.48470065581625 180" style="fill:none;stroke:#9400d3;stroke-linecap:round;stroke-miterlimit:10;" id="shape_32"/></g><g id="I29"><text id="text_18" transform="matrix(1.0000,0.0000,0.0000,1.0000,515.0029,1056.60)" fill="#008000" style="font-size:20px;font-family:Arial;">3.7-22</text><path d="M 510.0029262527024 1050.0000000000005L 510.0005166778572 1050.0000000000005" style="fill:none;stroke:#008000;stroke-linecap:round;stroke-miterlimit:10;" id="shape_33"/></g><g id="I37"><text id="text_19" transform="matrix(1.0000,0.0000,0.0000,1.0000,514.8747,816.60)" fill="#008000" style="font-size:20px;font-family:Arial;">Ca. Brocadia anammoxidans - AF375994.1.1543</text><path d="M 509.87465068308666 810.0000000000003L 501.4147144941583 810.0000000000003" style="fill:none;stroke:#008000;stroke-linecap:round;stroke-miterlimit:10;" id="shape_34"/></g><g id="I40"><path d="M 471.9472951303414 629.5312500000002L 471.94502044437405 629.5312500000002M 471.9472951303414 659.0625000000002L 471.9472951303414 600.0000000000002" style="fill:none;stroke:#000000;stroke-linecap:round;stroke-miterlimit:10;" id="shape_35"/></g><g id="I57"><path d="M 583.199911106637 472.5000000000001L 557.3048860545168 472.5000000000001M 583.199911106637 495.0000000000001L 583.199911106637 450.0000000000001" style="fill:none;stroke:#ff0000;stroke-linecap:round;stroke-miterlimit:10;" id="shape_36"/></g><g id="I31"><text id="text_20" transform="matrix(1.0000,0.0000,0.0000,1.0000,520.9018,996.60)" fill="#008000" style="font-size:20px;font-family:Arial;">3.10-1</text><path d="M 515.9017668971846 990.0000000000005L 509.9959673059226 990.0000000000005" style="fill:none;stroke:#008000;stroke-linecap:round;stroke-miterlimit:10;" id="shape_37"/></g><g id="I36"><text id="text_21" transform="matrix(1.0000,0.0000,0.0000,1.0000,528.6044,876.60)" fill="#008000" style="font-size:20px;font-family:Arial;">Ca. Brocadia sinica JPN1 - BAFN01000001.3301600.3303151</text><path d="M 523.6044109943708 870.0000000000003L 523.6020014195257 870.0000000000003" style="fill:none;stroke:#008000;stroke-linecap:round;stroke-miterlimit:10;" id="shape_38"/></g><g id="I58"><text id="text_22" transform="matrix(1.0000,0.0000,0.0000,1.0000,592.9141,456.60)" fill="#ff0000" style="font-size:20px;font-family:Arial;">Ca. Scalindua brodae - JRYO01000256.21289.22838</text><path d="M 587.9141051942161 450.0000000000001L 583.199911106637 450.0000000000001" style="fill:none;stroke:#ff0000;stroke-linecap:round;stroke-miterlimit:10;" id="shape_39"/></g><g id="I17"><path d="M 463.6663008662652 892.2656250000003L 442.5412922876425 892.2656250000003M 463.6663008662652 952.0312500000005L 463.6663008662652 832.5000000000003" style="fill:none;stroke:#008000;stroke-linecap:round;stroke-miterlimit:10;" id="shape_40"/></g><g id="I53"><text id="text_23" transform="matrix(1.0000,0.0000,0.0000,1.0000,485.8412,576.60)" fill="#000000" style="font-size:20px;font-family:Arial;">3.7-41</text><path d="M 480.8412025047068 570.0000000000002L 471.94502044437405 570.0000000000002" style="fill:none;stroke:#000000;stroke-linecap:round;stroke-miterlimit:10;" id="shape_41"/></g><g id="I55"><path d="M 557.3048860545168 446.25000000000006L 438.7516654660655 446.25000000000006M 557.3048860545168 472.5000000000001L 557.3048860545168 420.00000000000006" style="fill:none;stroke:#ff0000;stroke-linecap:round;stroke-miterlimit:10;" id="shape_42"/></g><g id="I16"><path d="M 442.5412922876425 731.0742187500003L 438.7516654660655 731.0742187500003M 442.5412922876425 892.2656250000003L 442.5412922876425 569.8828125000002" style="fill:none;stroke:#000000;stroke-linecap:round;stroke-miterlimit:10;" id="shape_43"/></g><g id="I49"><text id="text_24" transform="matrix(1.0000,0.0000,0.0000,1.0000,485.7907,696.60)" fill="#000000" style="font-size:20px;font-family:Arial;">3.7-43</text><path d="M 480.79065102111184 690.0000000000002L 471.9541191882434 690.0000000000002" style="fill:none;stroke:#000000;stroke-linecap:round;stroke-miterlimit:10;" id="shape_44"/></g><g id="I0"><path d="M 441.48470065581625 220.31250000000003L 410.85491676269214 220.31250000000003M 441.48470065581625 260.62500000000006L 441.48470065581625 180" style="fill:none;stroke:#000000;stroke-linecap:round;stroke-miterlimit:10;" id="shape_45"/></g><g id="I63"><path d="M 451.8504446089533 260.62500000000006L 441.48470065581625 260.62500000000006M 451.8504446089533 296.25000000000006L 451.8504446089533 225" style="fill:none;stroke:#000000;stroke-linecap:round;stroke-miterlimit:10;" id="shape_46"/></g><g id="I64"><path d="M 451.85271929492063 225L 451.8504446089533 225M 451.85271929492063 240.00000000000003L 451.85271929492063 210" style="fill:none;stroke:#000000;stroke-linecap:round;stroke-miterlimit:10;" id="shape_47"/></g><g id="I8"><g id="shape_48"><path d="M 357.78194377287576 15.000000000000002L 178.89097188643788 15.000000000000002" style="fill:none;stroke:#000000;stroke-linecap:round;stroke-miterlimit:10;"/><path d="M 357.78194377287576 15.000000000000002L 1000 45.00000000000001L 837.8757975206096 -15.000000000000002L 357.78194377287576 15.000000000000002" style="fill:#000000;fill-opacity:0.5;stroke:#000000;stroke-linecap:round;stroke-miterlimit:10;"/></g></g><g id="I32"><text id="text_25" transform="matrix(1.0000,0.0000,0.0000,1.0000,520.9007,966.60)" fill="#008000" style="font-size:20px;font-family:Arial;">3.7-7</text><path d="M 515.9007348721611 960.0000000000005L 509.99369261995525 960.0000000000005" style="fill:none;stroke:#008000;stroke-linecap:round;stroke-miterlimit:10;" id="shape_49"/></g><g id="I2"><path d="M 410.85491676269214 354.8217773437501L 402.6330643337666 354.8217773437501M 410.85491676269214 489.33105468750017L 410.85491676269214 220.31250000000003" style="fill:none;stroke:#000000;stroke-linecap:round;stroke-miterlimit:10;" id="shape_50"/></g><g id="I39"><path d="M 471.94502044437405 599.7656250000002L 463.1021787463666 599.7656250000002M 471.94502044437405 629.5312500000002L 471.94502044437405 570.0000000000002" style="fill:none;stroke:#000000;stroke-linecap:round;stroke-miterlimit:10;" id="shape_51"/></g><g id="I42"><path d="M 471.95184450227606 688.1250000000002L 471.9495698163087 688.1250000000002M 471.95184450227606 716.2500000000002L 471.95184450227606 660.0000000000002" style="fill:none;stroke:#000000;stroke-linecap:round;stroke-miterlimit:10;" id="shape_52"/></g><g id="I18"><path d="M 480.329512919964 952.0312500000005L 463.6663008662652 952.0312500000005M 480.329512919964 989.0625000000006L 480.329512919964 915.0000000000005" style="fill:none;stroke:#008000;stroke-linecap:round;stroke-miterlimit:10;" id="shape_53"/></g><g id="I35"><text id="text_26" transform="matrix(1.0000,0.0000,0.0000,1.0000,528.6044,846.60)" fill="#008000" style="font-size:20px;font-family:Arial;">Ca. Brocadia sinica - JZEK01000054.33287.34875</text><path d="M 523.6044109943708 840.0000000000003L 523.6020014195257 840.0000000000003" style="fill:none;stroke:#008000;stroke-linecap:round;stroke-miterlimit:10;" id="shape_54"/></g><g id="I59"><path d="M 600.0701195833632 495.0000000000001L 583.199911106637 495.0000000000001M 600.0701195833632 510.00000000000017L 600.0701195833632 480.0000000000001" style="fill:none;stroke:#ff0000;stroke-linecap:round;stroke-miterlimit:10;" id="shape_55"/></g><g id="I30"><text id="text_27" transform="matrix(1.0000,0.0000,0.0000,1.0000,520.9025,1026.60)" fill="#008000" style="font-size:20px;font-family:Arial;">3.10-3</text><path d="M 515.9024859254189 1020.0000000000005L 509.9982419918899 1020.0000000000005" style="fill:none;stroke:#008000;stroke-linecap:round;stroke-miterlimit:10;" id="shape_56"/></g><g id="I7"><text id="text_28" transform="matrix(1.0000,0.0000,0.0000,1.0000,374.6679,96.60)" fill="#ff8000" style="font-size:20px;font-family:Arial;">Ca. Jettenia caeni - AB057453.1.1485</text><path d="M 369.6678548987352 90.00000000000001L 357.78421845884304 90.00000000000001" style="fill:none;stroke:#ff8000;stroke-linecap:round;stroke-miterlimit:10;" id="shape_57"/></g><g id="I41"><path d="M 471.9495698163087 659.0625000000002L 471.9472951303414 659.0625000000002M 471.9495698163087 688.1250000000002L 471.9495698163087 630.0000000000002" style="fill:none;stroke:#000000;stroke-linecap:round;stroke-miterlimit:10;" id="shape_58"/></g><g id="I65"><text id="text_29" transform="matrix(1.0000,0.0000,0.0000,1.0000,456.8551,216.60)" fill="#000000" style="font-size:20px;font-family:Arial;">3.7-4</text><path d="M 451.8551288697658 210L 451.85271929492063 210" style="fill:none;stroke:#000000;stroke-linecap:round;stroke-miterlimit:10;" id="shape_59"/></g><g id="I13"><text id="text_30" transform="matrix(1.0000,0.0000,0.0000,1.0000,438.5529,156.60)" fill="#000000" style="font-size:20px;font-family:Arial;">3.4-2</text><path d="M 433.5529368810873 150L 424.72253976253853 150" style="fill:none;stroke:#000000;stroke-linecap:round;stroke-miterlimit:10;" id="shape_60"/></g><g id="I34"><path d="M 523.6020014195257 855.0000000000003L 501.4147144941583 855.0000000000003M 523.6020014195257 870.0000000000003L 523.6020014195257 840.0000000000003" style="fill:none;stroke:#008000;stroke-linecap:round;stroke-miterlimit:10;" id="shape_61"/></g><g id="I52"><text id="text_31" transform="matrix(1.0000,0.0000,0.0000,1.0000,479.8638,606.60)" fill="#000000" style="font-size:20px;font-family:Arial;">3.7-36</text><path d="M 474.863763726121 600.0000000000002L 471.9472951303414 600.0000000000002" style="fill:none;stroke:#000000;stroke-linecap:round;stroke-miterlimit:10;" id="shape_62"/></g><g id="I19"><path d="M 488.64576481653387 915.0000000000005L 480.329512919964 915.0000000000005M 488.64576481653387 930.0000000000005L 488.64576481653387 900.0000000000003" style="fill:none;stroke:#008000;stroke-linecap:round;stroke-miterlimit:10;" id="shape_63"/></g><g id="I66"><text id="text_32" transform="matrix(1.0000,0.0000,0.0000,1.0000,459.7829,246.60)" fill="#000000" style="font-size:20px;font-family:Arial;">3.7-23</text><path d="M 454.78285500013214 240.00000000000003L 451.85271929492063 240.00000000000003" style="fill:none;stroke:#000000;stroke-linecap:round;stroke-miterlimit:10;" id="shape_64"/></g><g id="I24"><path d="M 509.9982419918899 1046.2500000000005L 509.9959673059226 1046.2500000000005M 509.9982419918899 1072.5000000000007L 509.9982419918899 1020.0000000000005" style="fill:none;stroke:#008000;stroke-linecap:round;stroke-miterlimit:10;" id="shape_65"/></g><g id="I60"><text id="text_33" transform="matrix(1.0000,0.0000,0.0000,1.0000,624.0664,486.60)" fill="#ff0000" style="font-size:20px;font-family:Arial;">Ca. Scalindua marina - EF602039.1.1530</text><path d="M 619.0663874111284 480.0000000000001L 600.0701195833632 480.0000000000001" style="fill:none;stroke:#ff0000;stroke-linecap:round;stroke-miterlimit:10;" id="shape_66"/></g><g id="I45"><text id="text_34" transform="matrix(1.0000,0.0000,0.0000,1.0000,516.9758,726.60)" fill="#000000" style="font-size:20px;font-family:Arial;">3.7-1</text><path d="M 511.97576525913655 720.0000000000002L 474.8736786273154 720.0000000000002" style="fill:none;stroke:#000000;stroke-linecap:round;stroke-miterlimit:10;" id="shape_67"/></g><g id="I14"><path d="M 428.2881100163332 489.33105468750017L 410.85491676269214 489.33105468750017M 428.2881100163332 588.6621093750002L 428.2881100163332 390.0000000000001" style="fill:none;stroke:#000000;stroke-linecap:round;stroke-miterlimit:10;" id="shape_68"/></g><g id="I3"><path d="M 402.6330643337666 244.91088867187509L 357.78194377287576 244.91088867187509M 402.6330643337666 354.8217773437501L 402.6330643337666 135" style="fill:none;stroke:#000000;stroke-linecap:round;stroke-miterlimit:10;" id="shape_69"/></g><g id="I38"><path d="M 463.1021787463666 569.8828125000002L 442.5412922876425 569.8828125000002M 463.1021787463666 599.7656250000002L 463.1021787463666 540.0000000000001" style="fill:none;stroke:#000000;stroke-linecap:round;stroke-miterlimit:10;" id="shape_70"/></g><g id="I48"><text id="text_35" transform="matrix(1.0000,0.0000,0.0000,1.0000,479.8784,786.60)" fill="#000000" style="font-size:20px;font-family:Arial;">3.7-25</text><path d="M 474.878362888128 780.0000000000003L 474.87595331328276 780.0000000000003" style="fill:none;stroke:#000000;stroke-linecap:round;stroke-miterlimit:10;" id="shape_71"/></g><g id="NR0"><path d="M 178.89097188643788 87.47772216796878L 0 87.47772216796878M 178.89097188643788 159.95544433593753L 178.89097188643788 15.000000000000002" style="fill:none;stroke:#000000;stroke-linecap:round;stroke-miterlimit:10;" id="shape_72"/></g></g><g id="container_5"/><g id="container_6"/><g id="container_7"><text id="text_36" transform="matrix(1.0000,0.0000,0.0000,1.0000,413.6778,148.86)" fill="#000000" text-anchor="middle" style="font-size:19px;font-family:Arial;">97</text><text id="text_37" transform="matrix(1.0000,0.0000,0.0000,1.0000,495.1616,1002.93)" fill="#000000" text-anchor="middle" style="font-size:19px;font-family:Arial;">99</text><text id="text_38" transform="matrix(1.0000,0.0000,0.0000,1.0000,482.5405,846.36)" fill="#000000" text-anchor="middle" style="font-size:19px;font-family:Arial;">100</text><text id="text_39" transform="matrix(1.0000,0.0000,0.0000,1.0000,453.3165,310.11)" fill="#000000" text-anchor="middle" style="font-size:19px;font-family:Arial;">94</text><text id="text_40" transform="matrix(1.0000,0.0000,0.0000,1.0000,570.2524,486.36)" fill="#000000" text-anchor="middle" style="font-size:19px;font-family:Arial;">91</text><text id="text_41" transform="matrix(1.0000,0.0000,0.0000,1.0000,453.1038,906.13)" fill="#000000" text-anchor="middle" style="font-size:19px;font-family:Arial;">90</text><text id="text_42" transform="matrix(1.0000,0.0000,0.0000,1.0000,498.0283,460.11)" fill="#000000" text-anchor="middle" style="font-size:19px;font-family:Arial;">97</text><text id="text_43" transform="matrix(1.0000,0.0000,0.0000,1.0000,446.6676,274.49)" fill="#000000" text-anchor="middle" style="font-size:19px;font-family:Arial;">88</text><text id="text_44" transform="matrix(1.0000,0.0000,0.0000,1.0000,268.3365,28.86)" fill="#000000" text-anchor="middle" style="font-size:19px;font-family:Arial;">99</text><text id="text_45" transform="matrix(1.0000,0.0000,0.0000,1.0000,467.5236,613.63)" fill="#000000" text-anchor="middle" style="font-size:19px;font-family:Arial;">93</text><text id="text_46" transform="matrix(1.0000,0.0000,0.0000,1.0000,471.9979,965.90)" fill="#000000" text-anchor="middle" style="font-size:19px;font-family:Arial;">88</text><text id="text_47" transform="matrix(1.0000,0.0000,0.0000,1.0000,591.6350,508.86)" fill="#000000" text-anchor="middle" style="font-size:19px;font-family:Arial;">85</text><text id="text_48" transform="matrix(1.0000,0.0000,0.0000,1.0000,512.5084,868.86)" fill="#000000" text-anchor="middle" style="font-size:19px;font-family:Arial;">100</text><text id="text_49" transform="matrix(1.0000,0.0000,0.0000,1.0000,452.8217,583.75)" fill="#000000" text-anchor="middle" style="font-size:19px;font-family:Arial;">87</text></g><g id="container_8"/><g id="container_9"/></g><g id="container_10" transform="matrix(1.0000,0.0000,0.0000,1.0000,100.0000,100.00)"/><g id="container_11" transform="matrix(1.0000,0.0000,0.0000,1.0000,45.0000,36.00)"><path d="M 0 -3L 0 3M 0 0L 113.7342983666561 0M 113.7342983666561 -3L 113.7342983666561 3" style="fill:none;stroke:#000;stroke-width:0.5;stroke-linecap:round;stroke-miterlimit:10;" id="shape_74" transform="matrix(0.4981,0.0000,0.0000,1.0000,105.7373,8.00)"/><text id="text_50" transform="matrix(1.0000,0.0000,0.0000,1.0000,0.0000,10.22)" fill="#555" style="font-weight:bold;font-size:14px;font-family:Arial;">Tree scale: 0.1</text></g></g></svg>
